# xmcd
#
# Track frame offsets: 
#        150
#        1264
#        13773
#        29406
#        41475
#        52944
#        63406
#        79914
#        91317
#        104582
#        115916
#        129033
#        141966
#        154834
#        169323
#        182692
#
# Disc length: 2468 seconds
#
# Revision: 1
# Processed by: cddbd v1.5.2PL0 Copyright (c) Steve Scherf et al.
# Submitted via: ExactAudioCopy v0.95b3
#
DISCID=cc09a210
DTITLE=The Del McCoury Band - Old Memories: The Songs Of Bill Monroe
DYEAR=2011
DGENRE=Bluegrass
TTITLE0=Watermelon On The Vine
TTITLE1=Live And Let Live
TTITLE2=Lonesome Truck Driver's Blues
TTITLE3=Brakeman's Blues
TTITLE4=Close By
TTITLE5=In Despair
TTITLE6=Girl In The Blue Velvet Band
TTITLE7=John Henry
TTITLE8=I'm Blue I'm Lonesome
TTITLE9=Used To Be
TTITLE10=Alabama Waltz
TTITLE11=Lonesome Road Blues
TTITLE12=Heavy Traffic Ahead
TTITLE13=Train 45 (Heading South)
TTITLE14=My Rose Of Old Kentucky
TTITLE15=Y'all Come
EXTD=
EXTT0=
EXTT1=
EXTT2=
EXTT3=
EXTT4=
EXTT5=
EXTT6=
EXTT7=
EXTT8=
EXTT9=
EXTT10=
EXTT11=
EXTT12=
EXTT13=
EXTT14=
EXTT15=
PLAYORDER=
